<?xml version="1.0" encoding="utf-8"?>
<!-- Generator: Adobe Illustrator 16.0.0, SVG Export Plug-In . SVG Version: 6.00 Build 0)  -->
<!DOCTYPE svg PUBLIC "-//W3C//DTD SVG 1.1//EN" "http://www.w3.org/Graphics/SVG/1.1/DTD/svg11.dtd">
<svg version="1.1" id="Layer_1" xmlns="http://www.w3.org/2000/svg" xmlns:xlink="http://www.w3.org/1999/xlink" x="0px" y="0px"
	 width="10.152px" height="18px" viewBox="0 0 10.152 18" enable-background="new 0 0 10.152 18" xml:space="preserve">
<path fill="#FFFFFF" d="M8.273,8.994c1.137-0.93,1.862-2.343,1.862-3.926C10.136,2.269,7.866,0,5.067,0S0,2.269,0,5.068
	c0,1.59,0.732,3.01,1.879,3.938c-1.137,0.93-1.862,2.343-1.862,3.926C0.017,15.731,2.285,18,5.084,18s5.068-2.269,5.068-5.068
	C10.152,11.342,9.419,9.922,8.273,8.994z M5.084,2.552c1.401,0,2.536,1.136,2.536,2.537S6.485,7.625,5.084,7.625
	c-1.4,0-2.536-1.135-2.536-2.536S3.684,2.552,5.084,2.552z M5.084,15.468c-1.4,0-2.536-1.135-2.536-2.536s1.136-2.537,2.536-2.537
	c1.401,0,2.536,1.136,2.536,2.537S6.485,15.468,5.084,15.468z"/>
<g>
</g>
<g>
</g>
<g>
</g>
<g>
</g>
<g>
</g>
<g>
</g>
</svg>
